<?xml version="1.0" encoding="UTF-8"?>
<!DOCTYPE svg PUBLIC "-//W3C//DTD SVG 1.1//EN" "http://www.w3.org/Graphics/SVG/1.1/DTD/svg11.dtd">
<svg width="160mm" height="90mm" viewBox="0 0 16000 9000" version="1.1" xmlns="http://www.w3.org/2000/svg" xmlns:xlink="http://www.w3.org/1999/xlink" stroke-width="28.222" stroke-linejoin="round" xml:space="preserve">
 <path fill="rgb(0,0,0)" stroke="none" d="M 7987,8991 L -13,8991 -13,-13 15987,-13 15987,8991 7987,8991 Z"/>
 <path fill="none" stroke="rgb(179,179,179)" stroke-linejoin="round" d="M 8803,7183 L 1939,7183 1939,1461 15667,1461 15667,7183 8803,7183 Z"/>
 <path fill="none" stroke="rgb(179,179,179)" stroke-linejoin="round" d="M 15667,7182 L 1939,7182"/>
 <path fill="none" stroke="rgb(179,179,179)" stroke-linejoin="round" d="M 15667,6228 L 1939,6228"/>
 <path fill="none" stroke="rgb(179,179,179)" stroke-linejoin="round" d="M 15667,5274 L 1939,5274"/>
 <path fill="none" stroke="rgb(179,179,179)" stroke-linejoin="round" d="M 15667,4321 L 1939,4321"/>
 <path fill="none" stroke="rgb(179,179,179)" stroke-linejoin="round" d="M 15667,3367 L 1939,3367"/>
 <path fill="none" stroke="rgb(179,179,179)" stroke-linejoin="round" d="M 15667,2413 L 1939,2413"/>
 <path fill="none" stroke="rgb(179,179,179)" stroke-linejoin="round" d="M 15667,1460 L 1939,1460"/>
 <path fill="none" stroke="rgb(179,179,179)" stroke-linejoin="round" d="M 1939,7332 L 1939,7182"/>
 <path fill="none" stroke="rgb(179,179,179)" stroke-linejoin="round" d="M 1939,7332 L 1939,7182"/>
 <path fill="none" stroke="rgb(179,179,179)" stroke-linejoin="round" d="M 2592,7332 L 2592,7182"/>
 <path fill="none" stroke="rgb(179,179,179)" stroke-linejoin="round" d="M 2592,7332 L 2592,7182"/>
 <path fill="none" stroke="rgb(179,179,179)" stroke-linejoin="round" d="M 3246,7332 L 3246,7182"/>
 <path fill="none" stroke="rgb(179,179,179)" stroke-linejoin="round" d="M 3246,7332 L 3246,7182"/>
 <path fill="none" stroke="rgb(179,179,179)" stroke-linejoin="round" d="M 3900,7332 L 3900,7182"/>
 <path fill="none" stroke="rgb(179,179,179)" stroke-linejoin="round" d="M 3900,7332 L 3900,7182"/>
 <path fill="none" stroke="rgb(179,179,179)" stroke-linejoin="round" d="M 4554,7332 L 4554,7182"/>
 <path fill="none" stroke="rgb(179,179,179)" stroke-linejoin="round" d="M 4554,7332 L 4554,7182"/>
 <path fill="none" stroke="rgb(179,179,179)" stroke-linejoin="round" d="M 5207,7332 L 5207,7182"/>
 <path fill="none" stroke="rgb(179,179,179)" stroke-linejoin="round" d="M 5207,7332 L 5207,7182"/>
 <path fill="none" stroke="rgb(179,179,179)" stroke-linejoin="round" d="M 5861,7332 L 5861,7182"/>
 <path fill="none" stroke="rgb(179,179,179)" stroke-linejoin="round" d="M 5861,7332 L 5861,7182"/>
 <path fill="none" stroke="rgb(179,179,179)" stroke-linejoin="round" d="M 6515,7332 L 6515,7182"/>
 <path fill="none" stroke="rgb(179,179,179)" stroke-linejoin="round" d="M 6515,7332 L 6515,7182"/>
 <path fill="none" stroke="rgb(179,179,179)" stroke-linejoin="round" d="M 7169,7332 L 7169,7182"/>
 <path fill="none" stroke="rgb(179,179,179)" stroke-linejoin="round" d="M 7169,7332 L 7169,7182"/>
 <path fill="none" stroke="rgb(179,179,179)" stroke-linejoin="round" d="M 7822,7332 L 7822,7182"/>
 <path fill="none" stroke="rgb(179,179,179)" stroke-linejoin="round" d="M 7822,7332 L 7822,7182"/>
 <path fill="none" stroke="rgb(179,179,179)" stroke-linejoin="round" d="M 8475,7332 L 8475,7182"/>
 <path fill="none" stroke="rgb(179,179,179)" stroke-linejoin="round" d="M 8475,7332 L 8475,7182"/>
 <path fill="none" stroke="rgb(179,179,179)" stroke-linejoin="round" d="M 9129,7332 L 9129,7182"/>
 <path fill="none" stroke="rgb(179,179,179)" stroke-linejoin="round" d="M 9129,7332 L 9129,7182"/>
 <path fill="none" stroke="rgb(179,179,179)" stroke-linejoin="round" d="M 9783,7332 L 9783,7182"/>
 <path fill="none" stroke="rgb(179,179,179)" stroke-linejoin="round" d="M 9783,7332 L 9783,7182"/>
 <path fill="none" stroke="rgb(179,179,179)" stroke-linejoin="round" d="M 10436,7332 L 10436,7182"/>
 <path fill="none" stroke="rgb(179,179,179)" stroke-linejoin="round" d="M 10436,7332 L 10436,7182"/>
 <path fill="none" stroke="rgb(179,179,179)" stroke-linejoin="round" d="M 11090,7332 L 11090,7182"/>
 <path fill="none" stroke="rgb(179,179,179)" stroke-linejoin="round" d="M 11090,7332 L 11090,7182"/>
 <path fill="none" stroke="rgb(179,179,179)" stroke-linejoin="round" d="M 11744,7332 L 11744,7182"/>
 <path fill="none" stroke="rgb(179,179,179)" stroke-linejoin="round" d="M 11744,7332 L 11744,7182"/>
 <path fill="none" stroke="rgb(179,179,179)" stroke-linejoin="round" d="M 12398,7332 L 12398,7182"/>
 <path fill="none" stroke="rgb(179,179,179)" stroke-linejoin="round" d="M 12398,7332 L 12398,7182"/>
 <path fill="none" stroke="rgb(179,179,179)" stroke-linejoin="round" d="M 13051,7332 L 13051,7182"/>
 <path fill="none" stroke="rgb(179,179,179)" stroke-linejoin="round" d="M 13051,7332 L 13051,7182"/>
 <path fill="none" stroke="rgb(179,179,179)" stroke-linejoin="round" d="M 13705,7332 L 13705,7182"/>
 <path fill="none" stroke="rgb(179,179,179)" stroke-linejoin="round" d="M 13705,7332 L 13705,7182"/>
 <path fill="none" stroke="rgb(179,179,179)" stroke-linejoin="round" d="M 14359,7332 L 14359,7182"/>
 <path fill="none" stroke="rgb(179,179,179)" stroke-linejoin="round" d="M 14359,7332 L 14359,7182"/>
 <path fill="none" stroke="rgb(179,179,179)" stroke-linejoin="round" d="M 15013,7332 L 15013,7182"/>
 <path fill="none" stroke="rgb(179,179,179)" stroke-linejoin="round" d="M 15013,7332 L 15013,7182"/>
 <path fill="none" stroke="rgb(179,179,179)" stroke-linejoin="round" d="M 15667,7332 L 15667,7182"/>
 <path fill="none" stroke="rgb(179,179,179)" stroke-linejoin="round" d="M 15667,7332 L 15667,7182"/>
 <path fill="none" stroke="rgb(179,179,179)" stroke-linejoin="round" d="M 1939,7182 L 15667,7182"/>
 <path fill="none" stroke="rgb(179,179,179)" stroke-linejoin="round" d="M 1789,7182 L 1939,7182"/>
 <path fill="none" stroke="rgb(179,179,179)" stroke-linejoin="round" d="M 1789,7182 L 1939,7182"/>
 <path fill="none" stroke="rgb(179,179,179)" stroke-linejoin="round" d="M 1789,6228 L 1939,6228"/>
 <path fill="none" stroke="rgb(179,179,179)" stroke-linejoin="round" d="M 1789,6228 L 1939,6228"/>
 <path fill="none" stroke="rgb(179,179,179)" stroke-linejoin="round" d="M 1789,5274 L 1939,5274"/>
 <path fill="none" stroke="rgb(179,179,179)" stroke-linejoin="round" d="M 1789,5274 L 1939,5274"/>
 <path fill="none" stroke="rgb(179,179,179)" stroke-linejoin="round" d="M 1789,4321 L 1939,4321"/>
 <path fill="none" stroke="rgb(179,179,179)" stroke-linejoin="round" d="M 1789,4321 L 1939,4321"/>
 <path fill="none" stroke="rgb(179,179,179)" stroke-linejoin="round" d="M 1789,3367 L 1939,3367"/>
 <path fill="none" stroke="rgb(179,179,179)" stroke-linejoin="round" d="M 1789,3367 L 1939,3367"/>
 <path fill="none" stroke="rgb(179,179,179)" stroke-linejoin="round" d="M 1789,2413 L 1939,2413"/>
 <path fill="none" stroke="rgb(179,179,179)" stroke-linejoin="round" d="M 1789,2413 L 1939,2413"/>
 <path fill="none" stroke="rgb(179,179,179)" stroke-linejoin="round" d="M 1789,1460 L 1939,1460"/>
 <path fill="none" stroke="rgb(179,179,179)" stroke-linejoin="round" d="M 1789,1460 L 1939,1460"/>
 <path fill="none" stroke="rgb(179,179,179)" stroke-linejoin="round" d="M 1939,7182 L 1939,1460"/>
 <path fill="rgb(255,123,89)" stroke="none" d="M 15176,7182 L 15503,7182 15503,4702 15176,4702 15176,7182 Z"/>
 <path fill="rgb(255,123,89)" stroke="none" d="M 14522,7182 L 14849,7182 14849,2223 14522,2223 14522,7182 Z"/>
 <path fill="rgb(255,123,89)" stroke="none" d="M 13869,7182 L 14196,7182 14196,2223 13869,2223 13869,7182 Z"/>
 <path fill="rgb(255,123,89)" stroke="none" d="M 13215,7182 L 13542,7182 13542,6037 13215,6037 13215,7182 Z"/>
 <path fill="rgb(255,123,89)" stroke="none" d="M 12561,7182 L 12888,7182 12888,6037 12561,6037 12561,7182 Z"/>
 <path fill="rgb(255,123,89)" stroke="none" d="M 11907,7182 L 12234,7182 12234,6037 11907,6037 11907,7182 Z"/>
 <path fill="rgb(255,123,89)" stroke="none" d="M 11254,7182 L 11580,7182 11580,6800 11254,6800 11254,7182 Z"/>
 <path fill="rgb(255,123,89)" stroke="none" d="M 10600,7182 L 10927,7182 10927,6991 10600,6991 10600,7182 Z"/>
 <path fill="rgb(255,123,89)" stroke="none" d="M 9946,7182 L 10273,7182 10273,6228 9946,6228 9946,7182 Z"/>
 <path fill="rgb(255,123,89)" stroke="none" d="M 9292,7182 L 9619,7182 9619,5274 9292,5274 9292,7182 Z"/>
 <path fill="rgb(255,123,89)" stroke="none" d="M 8639,7182 L 8965,7182 8965,5274 8639,5274 8639,7182 Z"/>
 <path fill="rgb(255,123,89)" stroke="none" d="M 7986,7182 L 8312,7182 8312,5369 7986,5369 7986,7182 Z"/>
 <path fill="rgb(255,123,89)" stroke="none" d="M 7332,7182 L 7659,7182 7659,5178 7332,5178 7332,7182 Z"/>
 <path fill="rgb(255,123,89)" stroke="none" d="M 6678,7182 L 7005,7182 7005,5274 6678,5274 6678,7182 Z"/>
 <path fill="rgb(255,123,89)" stroke="none" d="M 6025,7182 L 6351,7182 6351,5178 6025,5178 6025,7182 Z"/>
 <path fill="rgb(255,123,89)" stroke="none" d="M 5371,7182 L 5698,7182 5698,5369 5371,5369 5371,7182 Z"/>
 <path fill="rgb(255,123,89)" stroke="none" d="M 4717,7182 L 5044,7182 5044,5274 4717,5274 4717,7182 Z"/>
 <path fill="rgb(255,123,89)" stroke="none" d="M 4063,7182 L 4390,7182 4390,5274 4063,5274 4063,7182 Z"/>
 <path fill="rgb(255,123,89)" stroke="none" d="M 3409,7182 L 3736,7182 3736,5274 3409,5274 3409,7182 Z"/>
 <path fill="rgb(255,123,89)" stroke="none" d="M 2756,7182 L 3083,7182 3083,5274 2756,5274 2756,7182 Z"/>
 <path fill="rgb(255,123,89)" stroke="none" d="M 2102,7182 L 2429,7182 2429,5274 2102,5274 2102,7182 Z"/>
 <text class="SVGTextShape"><tspan class="TextParagraph" font-family="Liberation Sans, sans-serif" font-size="353px" font-weight="400"><tspan class="TextPosition" x="2000" y="7750"><tspan fill="rgb(238,238,238)" stroke="none" style="white-space: pre"> </tspan><tspan fill="rgb(238,238,238)" stroke="none" style="white-space: pre">Aa</tspan></tspan></tspan></text>
 <text class="SVGTextShape"><tspan class="TextParagraph" font-family="Liberation Sans, sans-serif" font-size="353px" font-weight="400"><tspan class="TextPosition" x="2654" y="7750"><tspan fill="rgb(238,238,238)" stroke="none" style="white-space: pre"> </tspan><tspan fill="rgb(238,238,238)" stroke="none" style="white-space: pre">Ab</tspan></tspan></tspan></text>
 <text class="SVGTextShape"><tspan class="TextParagraph" font-family="Liberation Sans, sans-serif" font-size="353px" font-weight="400"><tspan class="TextPosition" x="3414" y="7750"><tspan fill="rgb(238,238,238)" stroke="none" style="white-space: pre"> </tspan><tspan fill="rgb(238,238,238)" stroke="none" style="white-space: pre">F</tspan></tspan></tspan></text>
 <text class="SVGTextShape"><tspan class="TextParagraph" font-family="Liberation Sans, sans-serif" font-size="353px" font-weight="400"><tspan class="TextPosition" x="3949" y="7750"><tspan fill="rgb(238,238,238)" stroke="none" style="white-space: pre"> </tspan><tspan fill="rgb(238,238,238)" stroke="none" style="white-space: pre">Ga</tspan></tspan></tspan></text>
 <text class="SVGTextShape"><tspan class="TextParagraph" font-family="Liberation Sans, sans-serif" font-size="353px" font-weight="400"><tspan class="TextPosition" x="4602" y="7750"><tspan fill="rgb(238,238,238)" stroke="none" style="white-space: pre"> </tspan><tspan fill="rgb(238,238,238)" stroke="none" style="white-space: pre">Gb</tspan></tspan></tspan></text>
 <text class="SVGTextShape"><tspan class="TextParagraph" font-family="Liberation Sans, sans-serif" font-size="353px" font-weight="400"><tspan class="TextPosition" x="5256" y="7750"><tspan fill="rgb(238,238,238)" stroke="none" style="white-space: pre"> </tspan><tspan fill="rgb(238,238,238)" stroke="none" style="white-space: pre">Gc</tspan></tspan></tspan></text>
 <text class="SVGTextShape"><tspan class="TextParagraph" font-family="Liberation Sans, sans-serif" font-size="353px" font-weight="400"><tspan class="TextPosition" x="5910" y="7750"><tspan fill="rgb(238,238,238)" stroke="none" style="white-space: pre"> </tspan><tspan fill="rgb(238,238,238)" stroke="none" style="white-space: pre">Gd</tspan></tspan></tspan></text>
 <text class="SVGTextShape"><tspan class="TextParagraph" font-family="Liberation Sans, sans-serif" font-size="353px" font-weight="400"><tspan class="TextPosition" x="6604" y="7750"><tspan fill="rgb(238,238,238)" stroke="none" style="white-space: pre"> </tspan><tspan fill="rgb(238,238,238)" stroke="none" style="white-space: pre">Ja</tspan></tspan></tspan></text>
 <text class="SVGTextShape"><tspan class="TextParagraph" font-family="Liberation Sans, sans-serif" font-size="353px" font-weight="400"><tspan class="TextPosition" x="7257" y="7750"><tspan fill="rgb(238,238,238)" stroke="none" style="white-space: pre"> </tspan><tspan fill="rgb(238,238,238)" stroke="none" style="white-space: pre">Jb</tspan></tspan></tspan></text>
 <text class="SVGTextShape"><tspan class="TextParagraph" font-family="Liberation Sans, sans-serif" font-size="353px" font-weight="400"><tspan class="TextPosition" x="7884" y="7750"><tspan fill="rgb(238,238,238)" stroke="none" style="white-space: pre"> </tspan><tspan fill="rgb(238,238,238)" stroke="none" style="white-space: pre">Ra</tspan></tspan></tspan></text>
 <text class="SVGTextShape"><tspan class="TextParagraph" font-family="Liberation Sans, sans-serif" font-size="353px" font-weight="400"><tspan class="TextPosition" x="8538" y="7750"><tspan fill="rgb(238,238,238)" stroke="none" style="white-space: pre"> </tspan><tspan fill="rgb(238,238,238)" stroke="none" style="white-space: pre">Rb</tspan></tspan></tspan></text>
 <text class="SVGTextShape"><tspan class="TextParagraph" font-family="Liberation Sans, sans-serif" font-size="353px" font-weight="400"><tspan class="TextPosition" x="9298" y="7750"><tspan fill="rgb(238,238,238)" stroke="none" style="white-space: pre"> </tspan><tspan fill="rgb(238,238,238)" stroke="none" style="white-space: pre">T</tspan></tspan></tspan></text>
 <text class="SVGTextShape"><tspan class="TextParagraph" font-family="Liberation Sans, sans-serif" font-size="353px" font-weight="400"><tspan class="TextPosition" x="9939" y="7750"><tspan fill="rgb(238,238,238)" stroke="none" style="white-space: pre"> </tspan><tspan fill="rgb(238,238,238)" stroke="none" style="white-space: pre">E</tspan></tspan></tspan></text>
 <text class="SVGTextShape"><tspan class="TextParagraph" font-family="Liberation Sans, sans-serif" font-size="353px" font-weight="400"><tspan class="TextPosition" x="10499" y="7750"><tspan fill="rgb(238,238,238)" stroke="none" style="white-space: pre"> </tspan><tspan fill="rgb(238,238,238)" stroke="none" style="white-space: pre">Na</tspan></tspan></tspan></text>
 <text class="SVGTextShape"><tspan class="TextParagraph" font-family="Liberation Sans, sans-serif" font-size="353px" font-weight="400"><tspan class="TextPosition" x="11153" y="7750"><tspan fill="rgb(238,238,238)" stroke="none" style="white-space: pre"> </tspan><tspan fill="rgb(238,238,238)" stroke="none" style="white-space: pre">Nb</tspan></tspan></tspan></text>
 <text class="SVGTextShape"><tspan class="TextParagraph" font-family="Liberation Sans, sans-serif" font-size="353px" font-weight="400"><tspan class="TextPosition" x="11900" y="7750"><tspan fill="rgb(238,238,238)" stroke="none" style="white-space: pre"> </tspan><tspan fill="rgb(238,238,238)" stroke="none" style="white-space: pre">V</tspan></tspan></tspan></text>
 <text class="SVGTextShape"><tspan class="TextParagraph" font-family="Liberation Sans, sans-serif" font-size="353px" font-weight="400"><tspan class="TextPosition" x="12554" y="7750"><tspan fill="rgb(238,238,238)" stroke="none" style="white-space: pre"> </tspan><tspan fill="rgb(238,238,238)" stroke="none" style="white-space: pre">Y</tspan></tspan></tspan></text>
 <text class="SVGTextShape"><tspan class="TextParagraph" font-family="Liberation Sans, sans-serif" font-size="353px" font-weight="400"><tspan class="TextPosition" x="13207" y="7750"><tspan fill="rgb(238,238,238)" stroke="none" style="white-space: pre"> </tspan><tspan fill="rgb(238,238,238)" stroke="none" style="white-space: pre">H</tspan></tspan></tspan></text>
 <text class="SVGTextShape"><tspan class="TextParagraph" font-family="Liberation Sans, sans-serif" font-size="353px" font-weight="400"><tspan class="TextPosition" x="13768" y="7750"><tspan fill="rgb(238,238,238)" stroke="none" style="white-space: pre"> </tspan><tspan fill="rgb(238,238,238)" stroke="none" style="white-space: pre">Ua</tspan></tspan></tspan></text>
 <text class="SVGTextShape"><tspan class="TextParagraph" font-family="Liberation Sans, sans-serif" font-size="353px" font-weight="400"><tspan class="TextPosition" x="14422" y="7750"><tspan fill="rgb(238,238,238)" stroke="none" style="white-space: pre"> </tspan><tspan fill="rgb(238,238,238)" stroke="none" style="white-space: pre">Ub</tspan></tspan></tspan></text>
 <text class="SVGTextShape"><tspan class="TextParagraph" font-family="Liberation Sans, sans-serif" font-size="353px" font-weight="400"><tspan class="TextPosition" x="15182" y="7750"><tspan fill="rgb(238,238,238)" stroke="none" style="white-space: pre"> </tspan><tspan fill="rgb(238,238,238)" stroke="none" style="white-space: pre">Z</tspan></tspan></tspan></text>
 <text class="SVGTextShape"><tspan class="TextParagraph" font-family="Liberation Sans, sans-serif" font-size="353px" font-weight="400"><tspan class="TextPosition" x="1504" y="7303"><tspan fill="rgb(238,238,238)" stroke="none" style="white-space: pre">0</tspan></tspan></tspan></text>
 <text class="SVGTextShape"><tspan class="TextParagraph" font-family="Liberation Sans, sans-serif" font-size="353px" font-weight="400"><tspan class="TextPosition" x="1319" y="6349"><tspan fill="rgb(238,238,238)" stroke="none" style="white-space: pre">10</tspan></tspan></tspan></text>
 <text class="SVGTextShape"><tspan class="TextParagraph" font-family="Liberation Sans, sans-serif" font-size="353px" font-weight="400"><tspan class="TextPosition" x="1319" y="5395"><tspan fill="rgb(238,238,238)" stroke="none" style="white-space: pre">20</tspan></tspan></tspan></text>
 <text class="SVGTextShape"><tspan class="TextParagraph" font-family="Liberation Sans, sans-serif" font-size="353px" font-weight="400"><tspan class="TextPosition" x="1319" y="4441"><tspan fill="rgb(238,238,238)" stroke="none" style="white-space: pre">30</tspan></tspan></tspan></text>
 <text class="SVGTextShape"><tspan class="TextParagraph" font-family="Liberation Sans, sans-serif" font-size="353px" font-weight="400"><tspan class="TextPosition" x="1319" y="3487"><tspan fill="rgb(238,238,238)" stroke="none" style="white-space: pre">40</tspan></tspan></tspan></text>
 <text class="SVGTextShape"><tspan class="TextParagraph" font-family="Liberation Sans, sans-serif" font-size="353px" font-weight="400"><tspan class="TextPosition" x="1319" y="2533"><tspan fill="rgb(238,238,238)" stroke="none" style="white-space: pre">50</tspan></tspan></tspan></text>
 <text class="SVGTextShape"><tspan class="TextParagraph" font-family="Liberation Sans, sans-serif" font-size="353px" font-weight="400"><tspan class="TextPosition" x="1319" y="1580"><tspan fill="rgb(238,238,238)" stroke="none" style="white-space: pre">60</tspan></tspan></tspan></text>
 <text class="SVGTextShape"><tspan class="TextParagraph" font-family="Liberation Sans, sans-serif" font-size="459px" font-weight="400"><tspan class="TextPosition" x="4428" y="838"><tspan fill="rgb(238,238,238)" stroke="none" style="white-space: pre">Probability of the result of two PLL&apos;s</tspan></tspan></tspan></text>
 <text class="SVGTextShape"><tspan class="TextParagraph" font-family="Liberation Sans, sans-serif" font-size="318px" font-weight="400"><tspan class="TextPosition" x="7725" y="8397"><tspan fill="rgb(238,238,238)" stroke="none" style="white-space: pre">PLL Name</tspan></tspan></tspan></text>
 <text class="SVGTextShape" transform="rotate(-90 824 6979)"><tspan class="TextParagraph" font-family="Liberation Sans, sans-serif" font-size="318px" font-weight="400"><tspan class="TextPosition" x="824" y="6979"><tspan fill="rgb(238,238,238)" stroke="none" style="white-space: pre">Number of times seen (out of 396)</tspan></tspan></tspan></text>
</svg>